<svg width="160" height="40" viewBox="0 0 160 40" fill="none" xmlns="http://www.w3.org/2000/svg">
<path d="M68.5372 15.951H73.5235C72.6916 10.6494 68.1002 6.95447 62.1257 6.95447C55.056 6.95447 49.752 12.1518 49.752 20.8603C49.752 29.4074 54.8177 34.7115 62.2697 34.7115C68.9594 34.7115 73.747 30.4106 73.747 23.4453V20.1998H62.7862V24.0239H69.0215C68.942 27.8753 66.3694 30.3163 62.3169 30.3163C57.7925 30.3163 54.6935 26.9267 54.6935 20.8057C54.6935 14.7244 57.8446 11.3472 62.2126 11.3472C65.4506 11.3472 67.6656 13.0879 68.5372 15.951Z" fill="#171321"/>
<path d="M77.0422 34.339H81.8174V14.0787H77.0422V34.339ZM79.4509 10.8704C80.9681 10.8704 82.2073 9.70831 82.2073 8.28544C82.2073 6.86258 80.9657 5.68555 79.4509 5.68555C77.9362 5.68555 76.6797 6.84768 76.6797 8.28544C76.6797 9.72321 77.9138 10.8704 79.4509 10.8704Z" fill="#171321"/>
<path d="M96.1159 14.0787H92.1154V9.22409H87.3452V14.0787H84.4697V17.7762H87.3452V29.0424C87.3179 32.8541 90.0892 34.7264 93.6749 34.6221C94.6305 34.6055 95.5782 34.4447 96.4858 34.1453L95.6813 30.4206C95.2245 30.5386 94.7551 30.6011 94.2833 30.6068C93.0839 30.6068 92.1204 30.1847 92.1204 28.2577V17.7762H96.1159V14.0787Z" fill="#171321"/>
<path d="M99.8135 34.339H116.607V30.2368H104.705V7.32446H99.8135V34.339Z" fill="#171321"/>
<path d="M126.247 34.7487C129.425 34.7487 131.325 33.2588 132.194 31.5553H132.343V34.339H136.934V20.7783C136.934 15.4246 132.569 13.8254 128.702 13.8254C124.441 13.8254 121.171 15.725 120.116 19.4175L124.585 20.0508C125.062 18.6651 126.405 17.4782 128.742 17.4782C130.957 17.4782 132.171 18.613 132.171 20.6045V20.684C132.171 22.0547 130.734 22.1217 127.158 22.5041C123.227 22.9263 119.46 24.1008 119.46 28.6649C119.465 32.638 122.38 34.7487 126.247 34.7487ZM127.816 31.24C125.829 31.24 124.399 30.3287 124.399 28.5755C124.399 26.7405 125.996 25.9756 128.124 25.6727C129.378 25.5013 131.883 25.176 132.504 24.6794V27.0657C132.512 29.3279 130.691 31.24 127.816 31.24Z" fill="#171321"/>
<path d="M140.465 34.339H145.161V31.1481H145.439C146.184 32.638 147.76 34.6966 151.242 34.6966C156.017 34.6966 159.593 30.9097 159.593 24.2349C159.593 17.4807 155.913 13.8056 151.229 13.8056C147.654 13.8056 146.164 15.9535 145.439 17.4186H145.24V7.32446H140.465V34.339ZM145.148 24.2101C145.148 20.2792 146.837 17.7315 149.911 17.7315C153.089 17.7315 154.726 20.4357 154.726 24.2101C154.726 27.9846 153.062 30.7781 149.911 30.7781C146.862 30.7781 145.148 28.141 145.148 24.2101Z" fill="#171321"/>
<path d="M39.1314 16.0057L39.0768 15.8641L33.6585 1.72984C33.5501 1.45163 33.3551 1.21569 33.1023 1.0569C32.8497 0.895283 32.5523 0.817909 32.253 0.835898C31.9534 0.850437 31.6662 0.959762 31.4328 1.1481C31.1994 1.33644 31.0318 1.59407 30.9543 1.8838L27.304 13.0705H12.5042L8.83907 1.8838C8.76073 1.5958 8.59291 1.34015 8.35981 1.15375C8.12518 0.967862 7.83861 0.859425 7.53969 0.843412C7.24078 0.827398 6.94427 0.904599 6.69111 1.06435C6.43897 1.22393 6.24415 1.45962 6.13488 1.7373L0.719054 15.8641L0.664423 16.0057C-0.115361 18.0434 -0.211506 20.2793 0.390483 22.3765C0.992473 24.4736 2.25996 26.3181 4.00182 27.6319L4.0192 27.6444L4.06887 27.6816L12.3205 33.8598L16.4028 36.9488L18.886 38.8261C19.1771 39.0471 19.5325 39.1667 19.8979 39.1667C20.2634 39.1667 20.6187 39.0471 20.9098 38.8261L23.393 36.9488L27.4754 33.8598L35.7742 27.6518L35.7965 27.6369C37.5387 26.3222 38.8061 24.4766 39.4077 22.3786C40.0092 20.2805 39.9123 18.0438 39.1314 16.0057Z" fill="#E24329"/>
<path d="M39.1312 16.0057L39.0766 15.8641C36.4372 16.406 33.9502 17.5244 31.7934 19.1395L19.8965 28.1336L27.4752 33.8598L35.774 27.6518L35.7963 27.6369C37.5385 26.3222 38.8059 24.4766 39.4075 22.3786C40.009 20.2806 39.9121 18.0438 39.1312 16.0057Z" fill="#FC6D26"/>
<path d="M12.3203 33.8597L16.4027 36.9488L18.8859 38.8261C19.1769 39.047 19.5323 39.1666 19.8977 39.1666C20.2632 39.1666 20.6186 39.047 20.9096 38.8261L23.3928 36.9488L27.4752 33.8597L19.8965 28.1335L12.3203 33.8597Z" fill="#FCA326"/>
<path d="M7.99975 19.1395C5.84413 17.5241 3.35782 16.4056 0.719054 15.8641L0.664423 16.0057C-0.115361 18.0434 -0.211506 20.2793 0.390483 22.3765C0.992473 24.4736 2.25996 26.3181 4.00182 27.6319L4.0192 27.6444L4.06887 27.6816L12.3205 33.8598L19.8967 28.1336L7.99975 19.1395Z" fill="#FC6D26"/>
</svg>
